<svg width="930" height="930" viewBox="0 0 930 930" fill="none" xmlns="http://www.w3.org/2000/svg">
<path fill-rule="evenodd" clip-rule="evenodd" d="M440.695 6.19042C429.164 10.1979 417.842 14.3723 415.536 15.4672C413.23 16.562 397.191 22.6683 379.894 29.0367C295.425 60.1368 283.152 64.6875 279.258 66.3488C276.952 67.3337 262.8 72.6326 247.81 78.1217C207.581 92.8538 212.254 73.6641 211.671 226.537C211.076 383.388 205.979 364.065 252.026 379.522C474.517 454.201 466.933 452.075 484.968 444.823C490.597 442.559 512.66 434.559 533.992 427.045C555.325 419.531 600.139 403.757 633.58 391.989C705.268 366.764 705.415 366.707 709.235 362.856C713.862 358.191 713.608 256.599 708.968 256.599C705.738 256.599 680.742 265.162 647.207 277.759C637.406 281.441 627.028 285.201 624.145 286.112C619.518 287.577 608.832 291.498 565.965 307.456C485.448 337.433 468.875 343.259 464.107 343.259C461.321 343.259 454.914 341.754 449.869 339.913C429.008 332.304 373.409 312.518 340.365 300.946C320.932 294.14 304.638 288.173 304.157 287.689C303.071 286.596 302.587 157.343 303.665 156.257C304.503 155.411 446.813 105.394 457.713 102.114C465.21 99.8563 453.735 95.9884 604.71 151.67C660.324 172.181 707.262 188.963 709.014 188.963C711.771 188.963 712.197 182.618 712.17 141.935C712.134 91.1418 712.264 91.8689 702.347 86.7475C693.655 82.2581 689.776 82.1313 693.332 86.4516C696.875 90.755 694.894 90.4929 676.042 84.1646C660.676 79.0053 654.755 74.7082 663.98 75.4078C666.286 75.5833 668.173 76.3717 668.173 77.1579C668.173 77.9463 671.238 79.0264 674.987 79.5569C678.736 80.0895 683.688 81.233 685.994 82.1017C689.344 83.3615 689.554 83.222 687.042 81.4C685.313 80.1445 677.765 77.0882 670.27 74.6047C662.775 72.1211 653.812 68.8429 650.352 67.3168C646.893 65.7908 639.817 63.1445 634.628 61.4346C629.439 59.7247 619.061 55.937 611.566 53.0181C599.741 48.4125 538.515 25.9022 520.365 19.4852C516.905 18.2635 510.873 15.8392 506.961 14.0975C503.049 12.3559 497.625 10.8045 494.908 10.646C492.191 10.4896 489.966 9.75613 489.966 9.01847C489.964 7.85174 479.475 3.9711 465.854 0.0968022C463.547 -0.558426 452.226 2.18296 440.695 6.19042ZM503.592 18.1811C504.913 19.4345 503.361 19.6247 499.399 18.6926C495.94 17.8788 492.166 16.3169 491.013 15.222C489.692 13.9686 491.243 13.7784 495.206 14.7105C498.665 15.5242 502.439 17.0862 503.592 18.1811ZM522.757 24.7503C523.556 25.5535 522.22 26.2129 519.79 26.2129C517.358 26.2129 514.786 25.2597 514.071 24.0929C512.645 21.7658 520.377 22.3492 522.757 24.7503ZM552.151 36.0878C550.757 37.4934 542.574 33.9446 543.549 32.3573C544.165 31.3512 546.469 31.6598 548.671 33.0463C550.87 34.4307 552.436 35.8004 552.151 36.0878ZM624.145 62.1448C626.94 63.9667 626.94 64.1929 624.145 64.1929C622.415 64.1929 619.585 63.2713 617.855 62.1448C615.061 60.3228 615.061 60.0966 617.855 60.0966C619.585 60.0966 622.415 61.0182 624.145 62.1448ZM648.159 70.0498C649.526 73.6408 645.161 73.402 635.574 69.3628C630.42 67.1921 628.516 65.4526 630.169 64.4233C633.45 62.3794 646.832 66.5665 648.159 70.0498ZM654.657 72.5333C654.005 73.5965 654.657 74.9471 656.105 75.5368C657.694 76.1814 657.284 76.6718 655.07 76.7733C653.053 76.8641 651.401 75.5135 651.401 73.7698C651.401 72.026 652.401 70.5993 653.621 70.5993C654.841 70.5993 655.309 71.4701 654.657 72.5333ZM751.154 106.011C750.487 106.685 749.94 170.615 749.94 248.077V388.917L722.16 398.687C706.88 404.06 677.87 414.325 657.69 421.501C637.511 428.677 607.792 439.14 591.648 444.751C551.627 458.663 531.64 465.805 526.654 467.976C514.343 473.34 465.091 489.1 460.644 489.1C454.956 489.1 186.175 398.759 182.856 395.732C181.539 394.531 181.036 343.751 181.453 254.509C181.812 177.866 181.493 113.219 180.747 110.845C178.788 104.625 175.935 105.206 138.788 119.418C120.338 126.478 103.176 132.747 100.651 133.353C89.6086 136 90.0887 129.327 88.5142 302.043C86.8704 482.389 86.0381 471.909 102.494 478.077C177.094 506.04 466.302 600.892 471.942 599.248C475.513 598.206 509.096 585.268 546.572 570.498C584.048 555.728 635.938 535.287 661.883 525.076C824.028 461.263 833.648 457.275 836.952 452.519C841.698 445.688 841.688 145.701 836.941 138.868C833.364 133.721 820.458 128.701 816.747 131.013C815.294 131.918 814.843 131.639 815.646 130.329C816.395 129.109 815.518 127.534 813.701 126.833C808.501 124.82 805.13 125.378 808.644 127.668C810.988 129.196 809.818 129.724 804.05 129.749C799.794 129.766 795.794 128.938 795.163 127.906C794.532 126.877 790.735 125.412 786.726 124.656C777.767 122.96 774.025 118.452 782.738 119.849C786.032 120.375 792.337 122.335 796.75 124.199C801.377 126.152 804.457 126.63 804.025 125.324C803.614 124.079 796.821 120.783 788.93 118.002C775.189 113.157 769.396 112.927 772.094 117.33C774.222 120.798 761.691 116.7 759.022 113.054C755.739 108.569 756.653 108.108 763.567 110.758C766.771 111.986 769.782 112.595 770.262 112.111C770.74 111.629 766.911 109.784 761.75 108.011C756.59 106.237 751.822 105.339 751.154 106.011ZM829.609 137.179C829.609 138.923 828.079 140.349 826.209 140.349C823.422 140.349 823.278 139.777 825.416 137.179C826.852 135.435 828.383 134.008 828.817 134.008C829.253 134.008 829.609 135.435 829.609 137.179ZM87.4218 634.793L71.6975 635.998V653.625C71.6975 667.03 72.4502 671.714 74.8424 673.176C77.5889 674.855 77.5386 675.372 74.4566 677.241C71.2824 679.164 70.9281 685.304 70.9386 738.156C70.9511 792.616 70.6513 797.463 66.8523 804.18C63.5691 809.988 62.9632 814.057 63.8081 824.64L64.8627 837.85H74.4398C92.3949 837.85 119.956 805.955 108.285 798.684C107.151 797.976 106.876 796.332 107.677 795.028C111.077 789.477 110.409 770.383 106.735 768.225C103.553 766.354 103.532 766.107 106.545 766.05C109.052 766.003 110.321 763.076 111.379 754.89C112.17 748.788 113.371 741.51 114.053 738.722C115.011 734.789 114.631 734.028 112.363 735.334C109.996 736.693 109.937 736.471 112.057 734.17C115.172 730.786 115.589 717.373 112.581 717.373C111.407 717.373 110.629 712.486 110.813 706.276L111.142 695.179L112.581 705.748L114.019 716.316L114.348 705.219C114.533 699.009 113.755 694.123 112.581 694.123C111.428 694.123 110.635 690.557 110.82 686.196C111.151 678.393 111.168 678.376 112 685.14C114.034 701.647 116.864 690.479 116.392 667.814C116.007 649.28 115.3 644.112 113.373 645.722C110.524 648.107 109.551 646.912 107.589 638.64C106.832 635.444 105.522 632.998 104.679 633.207C103.836 633.417 96.0702 634.131 87.4218 634.793ZM11.4734 689.367C11.2155 719.302 11.2533 749.261 11.5573 755.946C11.8927 763.306 11.2512 768.1 9.93242 768.1C8.73318 768.1 7.75198 770.843 7.75198 774.194C7.75198 778.457 6.52339 780.613 3.66785 781.365C-2.08096 782.881 -0.908969 791.077 6.04118 797.976C9.12734 801.039 12.6894 807.42 13.9537 812.154C15.2179 816.889 17.2662 821.393 18.5053 822.167C19.7444 822.938 22.0905 826.783 23.7174 830.71C26.5771 837.607 30.8143 840.414 30.8143 835.409C30.8143 833.999 32.5293 834.532 34.8754 836.673C37.1082 838.71 40.0455 839.687 41.3999 838.843C42.7543 838 44.6286 838.558 45.5658 840.086C46.9558 842.354 47.9308 842.306 50.8932 839.828C52.8892 838.159 55.0843 837.026 55.7719 837.311C59.1977 838.727 57.4115 797.465 53.9395 794.962C50.1028 792.198 46.8636 782.895 49.7359 782.895C50.7024 782.895 51.1511 780.279 50.7339 777.083C50.3146 773.887 49.8764 771.27 49.759 771.27C49.6437 771.27 49.5262 743.687 49.499 709.975C49.4717 674.271 48.5555 645.811 47.3081 641.81L45.1654 634.941H28.5542H11.9451L11.4734 689.367ZM130.513 722.128C130.068 723.582 129.181 731.299 128.538 739.28C127.896 747.262 126.422 754.94 125.267 756.346C123.85 758.066 123.913 759.656 125.46 761.216C126.861 762.628 128.171 777.846 128.815 800.164C130.037 842.54 128.594 838.194 141.872 839.48L152.386 840.498L152.311 781.24C152.225 715.84 153.038 719.486 138.551 719.486C134.574 719.486 130.955 720.676 130.513 722.128ZM155.659 721.15C153.124 723.703 154.644 740.215 157.645 742.726C159.58 744.345 160.395 747.524 159.777 751.056C159.23 754.194 159.722 760.028 160.873 764.016C162.672 770.243 162.37 771.767 158.739 774.779C151.344 780.919 154.269 831.023 162.391 837.322C165.544 839.767 183.864 841.187 183.864 838.985C183.864 838.446 181.992 833.215 179.703 827.36C177.413 821.505 175.946 816.714 176.445 816.714C176.941 816.714 175.889 811.755 174.103 805.695L170.857 794.677L176.837 789.875C189.133 780 186.164 730.61 172.843 723.424C167.725 720.661 157.485 719.307 155.659 721.15ZM195.92 720.943C191.32 722.156 190.427 756.819 194.871 761.647C196.314 763.211 196.473 763.921 195.228 763.222C193.745 762.393 192.875 765.737 192.714 772.875C192.387 787.376 190.211 799.804 187.997 799.804C187.013 799.804 187.563 802.421 189.217 805.617C190.957 808.982 192.23 817.439 192.238 825.697L192.251 839.964H203.782H215.313V779.725V719.486L207.451 719.731C203.128 719.867 197.939 720.412 195.92 720.943ZM218.881 720.822C215.973 723.752 217.229 742.736 220.33 742.736C226.402 742.736 227.758 755.813 222.127 760.053C217.156 763.797 217.363 785.009 222.37 785.009C225.634 785.009 224.62 815.071 221.313 816.361C220.32 816.75 219.506 822.296 219.506 828.687V840.308L226.32 839.304C237.031 837.725 240.377 835.707 244.044 828.611C248.286 820.406 249.997 789.604 246.759 779.716C245.053 774.504 245.051 770.275 246.755 763.896C252.592 742.041 230.972 708.631 218.881 720.822ZM269.101 721.071C268.566 721.944 266.534 733.595 264.582 746.964C262.631 760.332 260.737 771.759 260.37 772.355C260.006 772.951 259.112 779.133 258.383 786.093C257.655 793.054 256.24 802.077 255.242 806.145C254.242 810.214 252.795 819.068 252.024 825.819L250.623 838.095L260.748 837.444L270.872 836.793L273.367 816.714C274.738 805.67 276.971 790.452 278.328 782.895C280.973 768.157 281.997 761.33 283.563 748.02C284.108 743.37 285.11 735.049 285.787 729.526L287.018 719.486H278.546C273.885 719.486 269.635 720.199 269.101 721.071ZM315.55 720.594C314.41 721.744 319.23 743.738 325.033 763.873C326.878 770.266 329.962 780.966 331.889 787.651C333.816 794.336 336.443 799.819 337.726 799.836C339.411 799.859 339.42 800.301 337.757 801.421C335.614 802.867 339.531 820.074 345.447 835.208C347.2 839.689 364.17 842.783 364.17 838.624C364.17 835.478 359.121 819.713 357.526 817.876C356.568 816.773 355.8 814.395 355.819 812.592C355.838 810.791 351.62 793.147 346.443 773.384C341.269 753.621 336.027 733.409 334.797 728.469C332.667 719.915 320.97 715.128 315.55 720.594ZM347.477 741.354C347.768 762.63 362.272 827.282 366.755 827.282C367.64 827.282 368.363 813.433 368.363 796.509C368.363 778.332 367.575 766.229 366.436 766.937C363.809 768.575 357.872 762.287 357.911 757.91C357.939 754.961 358.268 754.875 359.849 757.396C364.497 764.801 368.363 755.684 368.363 737.315V719.729L357.773 719.812L347.183 719.894L347.477 741.354ZM430.64 722.498C404.552 729.568 402.772 736.262 403.168 825.688L403.487 897.015L411.263 906.581C419.723 916.991 429.87 922.395 440.951 922.395H448.033L448.427 910.77C449.232 886.924 449.318 887.52 445.093 887.51C441.322 887.501 441.108 885.447 441.148 849.464C441.169 828.546 440.311 809.071 439.238 806.19C437.94 802.698 438.032 800.699 439.517 800.2C440.863 799.747 441.743 792.096 441.743 780.832C441.743 767.128 442.492 761.922 444.58 761.114C447.834 759.855 450.427 737.773 448.632 726.618C447.343 718.615 446.052 718.319 430.64 722.498ZM459.208 721.211C457.968 722.006 456.849 727.715 456.721 733.899C456.593 740.082 455.939 746.036 455.27 747.128C453.094 750.677 456.597 757.667 460.247 757.058C462.765 756.64 463.95 758.267 464.443 762.816C464.82 766.303 465.998 770.061 467.063 771.165C468.128 772.27 468.984 774.648 468.967 776.449C468.938 779.336 468.692 779.349 466.902 776.554C465.43 774.259 464.86 776.117 464.837 783.295L464.805 793.204L482.626 792.99L500.447 792.779V772.3C500.447 748.308 498.034 739.917 488.537 730.887C484.71 727.25 481.578 724.654 481.578 725.123C481.578 725.593 479.928 725.125 477.909 724.085C472.332 721.213 461.742 719.583 459.208 721.211ZM309.722 776.819C309.644 840.862 309.772 841.716 319.293 840.657C325.023 840.021 326.434 840.604 326.444 843.612C326.452 846.184 327.442 845.459 329.589 841.308C335.822 829.26 334.124 813.089 321.249 761.846C310.168 717.749 309.795 718.235 309.722 776.819ZM286.678 750.603C285.188 760.808 283.313 772.486 282.51 776.554C281.709 780.623 281.147 790.135 281.261 797.691C281.399 806.686 280.529 812.161 278.745 813.549C273.394 817.711 272.824 831.509 278.003 831.509C280.495 831.509 283.051 832.868 283.684 834.529C285.427 839.105 307.562 838.776 307.562 834.172C307.562 816.785 299.817 795.736 294.612 798.978C293.379 799.747 292.819 798.644 293.285 796.355C293.784 793.901 295.526 792.66 297.891 793.077C300.3 793.502 301.153 792.865 300.22 791.341C299.409 790.02 298.796 784.011 298.859 777.992C299.017 763.027 294.304 733.7 291.595 732.792C290.286 732.352 288.284 739.602 286.678 750.603ZM57.0215 768.1C57.7343 769.262 59.204 770.214 60.2901 770.214C61.3761 770.214 62.2629 769.262 62.2629 768.1C62.2629 766.937 60.7911 765.986 58.9944 765.986C57.1976 765.986 56.3087 766.937 57.0215 768.1ZM80.0838 774.441C80.7967 775.603 80.4361 776.554 79.2829 776.554C78.1298 776.554 76.6035 775.603 75.8907 774.441C75.1778 773.278 75.5385 772.327 76.6916 772.327C77.8447 772.327 79.371 773.278 80.0838 774.441ZM94.416 773.912C94.9402 774.785 94.0512 776.724 92.4431 778.222C90.0132 780.488 89.5184 780.22 89.5184 776.637C89.5184 772.427 92.5207 770.757 94.416 773.912ZM92.1286 789.598C91.3613 792.559 90.5562 793.043 89.4387 791.221C88.5624 789.79 86.3337 789.205 84.4887 789.919C80.6457 791.405 80.0461 789.063 83.4048 785.677C87.1283 781.923 93.3908 784.736 92.1286 789.598ZM98.6637 794.52C97.9991 796.264 97.085 797.691 96.6321 797.691C96.1792 797.691 95.8081 796.264 95.8081 794.52C95.8081 792.777 96.7223 791.35 97.8397 791.35C98.9551 791.35 99.3262 792.777 98.6637 794.52ZM558.577 803.62L548.566 804.268L549.339 813.33C549.763 818.314 550.897 823.674 551.857 825.24C552.895 826.931 552.671 828.402 551.306 828.861C549.777 829.374 548.93 841.409 548.771 864.881C548.637 884.413 547.626 901.041 546.503 902.174C540.626 908.099 544.226 922.395 551.595 922.395C563.873 922.395 572.129 910.627 571.529 893.98C571.269 886.741 571.785 879.63 572.674 878.18C575.379 873.769 576.618 810.373 574.001 810.373C572.752 810.373 571.731 809.003 571.731 807.327C571.731 803.26 570.313 802.861 558.577 803.62ZM514.867 835.208C514.498 880.036 513.999 885.785 510.152 889.664C505.733 894.119 505.848 895.455 510.93 898.655C513.236 900.107 515.123 902.491 515.123 903.952C515.123 907.135 522.239 920.912 523.602 920.366C524.128 920.157 527.145 920.975 530.304 922.188C541.291 926.399 548.44 906.015 539.391 896.284C538.003 894.793 537.03 880.854 536.858 860.043C536.705 841.443 536.471 821.23 536.334 815.128L536.089 804.032H525.606H515.123L514.867 835.208ZM590.438 810.21C584.948 815.748 584.314 817.777 584.342 829.761C584.367 839.818 584.929 842.348 586.612 839.964C588.304 837.567 588.589 838.704 587.776 844.622C586.564 853.455 591.16 861.14 600.743 866.308C616.138 874.608 624.98 890.909 618.04 898.194C616.197 900.128 614.822 911.028 615.455 918.697C615.956 924.799 627.173 923.387 635.119 916.224C648.088 904.531 644.01 869.779 628.577 860.485C613.174 851.208 606.846 842.682 608.278 833.13C609.023 828.169 610.157 819.594 610.8 814.072L611.97 804.032H604.27C598.552 804.032 594.988 805.623 590.438 810.21ZM615.23 813.015C614.528 819.533 615.168 822.733 617.562 824.68C619.822 826.517 620.73 830.376 620.447 836.941L620.034 846.522L630.999 845.886L641.966 845.248L641.612 830.488C641.035 806.541 617.602 791.02 615.23 813.015ZM645.111 813.41C645.111 822.444 645.36 822.811 651.925 823.45L658.739 824.111L659.005 846.305C659.152 858.511 658.376 872.186 657.281 876.692C656.185 881.201 656.065 885.669 657.013 886.624C657.963 887.58 658.267 895.986 657.69 905.302C656.518 924.241 656.537 924.262 672.696 922.721C679.66 922.055 680.497 921.284 681.83 914.266C684.371 900.919 685.155 887.93 683.631 884.492C681.717 880.171 681.537 876.802 681.111 837.322L680.753 804.032H662.932H645.111V813.41ZM684.946 814V824.223L693.332 823.416L701.718 822.611V864.657V906.704L707.484 913.577C711.411 918.259 715.757 920.848 721.112 921.7L728.974 922.949V912.28C728.974 906.412 728.035 901.295 726.886 900.906C724.091 899.966 723.726 832.175 726.496 828.776C728.538 826.269 729.634 818.159 729.196 808.787C728.762 799.487 708.289 806.401 704.591 817.096C703.096 821.421 702.765 821.002 701.783 813.543C700.729 805.535 700.255 805.055 692.808 804.433L684.946 803.776V814ZM733.167 814.323C733.167 820.288 734.001 825.168 735.018 825.168C738.624 825.168 739.172 834.32 736.111 843.411C733.8 850.272 733.584 853.709 735.266 856.877C738.302 862.594 738.484 896.744 735.494 899.758C730.444 904.85 732.624 922.395 738.31 922.395C758.053 922.395 760.93 914.23 760.074 860.616C759.282 811.038 758.087 807.555 740.916 804.746L733.167 803.478V814.323ZM770.142 832.037C768.106 889.313 770.216 922.395 775.904 922.395C777.457 922.395 781.204 924.359 784.229 926.76C787.257 929.161 790.687 930.531 791.85 929.806C794.651 928.062 794.563 924.509 791.722 924.509C788.282 924.509 784.091 919.508 785.064 916.564C785.542 915.12 787.661 913.941 789.775 913.941C794.301 913.941 794.347 899.881 789.831 897.068C787.856 895.838 787.81 894.392 789.632 890.959C790.944 888.486 791.397 886.464 790.64 886.464C789.881 886.464 790.238 885.276 791.433 883.822C792.626 882.37 793.324 875.948 792.982 869.555C791.888 849.114 781.388 791.432 781.388 805.868C781.388 807.724 780.296 807.819 777.333 806.219C775.103 805.017 772.796 804.032 772.207 804.032C771.62 804.032 770.689 816.633 770.142 832.037ZM789.571 805.617C788.881 811.003 790.63 827.267 794.15 848.222C796.379 861.483 797.754 872.782 797.207 873.334C796.66 873.885 797.22 876.236 798.452 878.559C799.685 880.879 801.104 887.649 801.608 893.603C803.815 919.717 804.532 921.265 814.73 922.002L823.913 922.668L822.55 914.605C821.8 910.17 819.747 895.7 817.988 882.448C816.229 869.193 814.42 857.744 813.965 857.004C813.512 856.264 812.579 849.511 811.893 841.997C810.818 830.207 808.728 815.065 807.457 809.844C807.245 808.971 806.954 807.308 806.809 806.145C806.509 803.721 789.879 803.212 789.571 805.617ZM820.229 809.849C815.72 827.965 817.11 864.636 823.596 898.617C825.471 908.437 829.54 914.121 829.651 907.072C829.674 905.62 830.624 897.93 831.765 889.985C835.954 860.764 836.061 848.222 832.111 848.881C829.656 849.291 828.417 847.845 828.092 844.191C827.834 841.285 828.146 840.088 828.786 841.532C832.937 850.908 842.189 828.271 842.189 808.735C842.189 801.278 822.11 802.296 820.229 809.849ZM845.543 814.072C839.537 856.856 837.996 873.651 837.996 896.368V922.395H848.464H858.93L858.89 863.214L858.85 804.032H852.9C847.399 804.032 846.845 804.786 845.543 814.072ZM879.313 808.293C871.78 814.266 868.717 827.358 871.411 842.077C871.518 842.658 872.61 841.707 873.839 839.964C875.504 837.603 875.766 839.029 874.864 845.565C873.591 854.797 881.554 863.911 903.359 878.18C906.273 880.087 907.973 894.569 905.631 897.543C899.354 905.514 900.631 922.395 907.512 922.395C936.7 922.395 937.732 879.279 909.101 855.989C894.415 844.043 889.991 836.058 894.249 829.182C895.691 826.855 897.375 820.243 897.991 814.49L899.109 804.032H891.899C887.842 804.032 882.334 805.896 879.313 808.293ZM902.109 812.968C900.989 820.026 901.43 822.45 904.204 824.496C906.661 826.305 907.661 829.979 907.527 836.696L907.336 846.305H917.741H928.149V831.346C928.149 806.697 905.625 790.8 902.109 812.968ZM465.143 869.29C465.65 878.163 465.151 881.435 463.394 880.753C458.283 878.764 455.012 894.303 456.075 915.526C456.4 922.002 456.87 922.393 464.281 922.349C489.746 922.199 503.726 903.81 501.24 873.74L499.843 856.873H482.138H464.432L465.143 869.29ZM584.31 894.941C584.31 918.961 610.725 935.515 611.253 911.827C611.413 904.702 610.643 901.259 608.893 901.259C607.11 901.259 606.523 898.355 607.022 892.027L607.75 882.797L596.03 882.689L584.31 882.583V894.941ZM871.298 887.138C870.145 909.006 878.738 923.594 891.834 921.996C898.356 921.201 902.086 901.259 895.712 901.259C893.339 901.259 892.507 898.928 892.507 892.272V883.283L882.024 882.906C872.6 882.566 871.516 882.993 871.298 887.138ZM785.581 890.566C785.581 894.109 781.862 894.988 780.625 891.735C779.895 889.818 780.631 888.577 782.502 888.577C784.196 888.577 785.581 889.471 785.581 890.566ZM561.248 892.452C561.248 893.422 559.875 894.214 558.195 894.214C556.516 894.214 555.629 893.422 556.222 892.452C556.816 891.484 558.189 890.691 559.275 890.691C560.361 890.691 561.248 891.484 561.248 892.452Z" fill="black"/>
</svg>
